<mxfile host="app.diagrams.net" modified="2023-11-22T08:24:37.656Z" agent="Mozilla/5.0 (Macintosh; Intel Mac OS X 10.15; rv:120.0) Gecko/20100101 Firefox/120.0" etag="AFbs_5wKQnuNoXY5EwoO" version="22.1.3" type="device">
  <diagram name="Page-1" id="e_niRkovS0Z1S4PT6Fc3">
    <mxGraphModel dx="1306" dy="751" grid="1" gridSize="10" guides="1" tooltips="1" connect="1" arrows="1" fold="1" page="1" pageScale="1" pageWidth="1654" pageHeight="2336" math="0" shadow="0">
      <root>
        <mxCell id="0" />
        <mxCell id="1" parent="0" />
        <mxCell id="TzHnPAHYvHhggCEKfEBy-5" value="" style="rounded=1;whiteSpace=wrap;html=1;fillColor=#fff2cc;strokeColor=#d6b656;" vertex="1" parent="1">
          <mxGeometry x="60" y="120" width="120" height="60" as="geometry" />
        </mxCell>
        <mxCell id="TzHnPAHYvHhggCEKfEBy-6" value="&lt;font style=&quot;font-size: 18px;&quot;&gt;User&lt;/font&gt;" style="rounded=1;whiteSpace=wrap;html=1;fillColor=#fff2cc;strokeColor=#d6b656;" vertex="1" parent="1">
          <mxGeometry x="60" y="480" width="120" height="60" as="geometry" />
        </mxCell>
        <mxCell id="TzHnPAHYvHhggCEKfEBy-7" value="&lt;font style=&quot;font-size: 18px;&quot;&gt;System&lt;/font&gt;" style="rounded=1;whiteSpace=wrap;html=1;fillColor=#e1d5e7;strokeColor=#9673a6;" vertex="1" parent="1">
          <mxGeometry x="400" y="120" width="120" height="60" as="geometry" />
        </mxCell>
        <mxCell id="TzHnPAHYvHhggCEKfEBy-8" value="&lt;font style=&quot;font-size: 18px;&quot;&gt;System&lt;/font&gt;" style="rounded=1;whiteSpace=wrap;html=1;fillColor=#e1d5e7;strokeColor=#9673a6;" vertex="1" parent="1">
          <mxGeometry x="400" y="480" width="120" height="60" as="geometry" />
        </mxCell>
        <mxCell id="TzHnPAHYvHhggCEKfEBy-9" value="&lt;font style=&quot;font-size: 18px;&quot;&gt;Airline_Database&lt;/font&gt;" style="rounded=1;whiteSpace=wrap;html=1;fillColor=#d5e8d4;strokeColor=#82b366;" vertex="1" parent="1">
          <mxGeometry x="720" y="120" width="200" height="60" as="geometry" />
        </mxCell>
        <mxCell id="TzHnPAHYvHhggCEKfEBy-10" value="&lt;font style=&quot;font-size: 18px;&quot;&gt;Airline_Database&lt;/font&gt;" style="rounded=1;whiteSpace=wrap;html=1;fillColor=#d5e8d4;strokeColor=#82b366;" vertex="1" parent="1">
          <mxGeometry x="720" y="480" width="200" height="60" as="geometry" />
        </mxCell>
        <mxCell id="TzHnPAHYvHhggCEKfEBy-11" value="" style="endArrow=none;dashed=1;html=1;rounded=0;entryX=0.5;entryY=1;entryDx=0;entryDy=0;exitX=0.5;exitY=0;exitDx=0;exitDy=0;" edge="1" parent="1" source="TzHnPAHYvHhggCEKfEBy-6" target="TzHnPAHYvHhggCEKfEBy-5">
          <mxGeometry width="50" height="50" relative="1" as="geometry">
            <mxPoint x="120" y="390" as="sourcePoint" />
            <mxPoint x="200" y="260" as="targetPoint" />
          </mxGeometry>
        </mxCell>
        <mxCell id="TzHnPAHYvHhggCEKfEBy-12" value="" style="endArrow=none;dashed=1;html=1;rounded=0;entryX=0.5;entryY=1;entryDx=0;entryDy=0;exitX=0.5;exitY=0;exitDx=0;exitDy=0;" edge="1" parent="1" source="TzHnPAHYvHhggCEKfEBy-8">
          <mxGeometry width="50" height="50" relative="1" as="geometry">
            <mxPoint x="459.5" y="400" as="sourcePoint" />
            <mxPoint x="459.5" y="180" as="targetPoint" />
          </mxGeometry>
        </mxCell>
        <mxCell id="TzHnPAHYvHhggCEKfEBy-13" value="" style="endArrow=none;dashed=1;html=1;rounded=0;entryX=0.5;entryY=1;entryDx=0;entryDy=0;exitX=0.5;exitY=0;exitDx=0;exitDy=0;" edge="1" parent="1" source="TzHnPAHYvHhggCEKfEBy-10">
          <mxGeometry width="50" height="50" relative="1" as="geometry">
            <mxPoint x="819.5" y="400" as="sourcePoint" />
            <mxPoint x="819.5" y="180" as="targetPoint" />
          </mxGeometry>
        </mxCell>
        <mxCell id="TzHnPAHYvHhggCEKfEBy-14" value="" style="endArrow=classic;html=1;rounded=0;" edge="1" parent="1">
          <mxGeometry width="50" height="50" relative="1" as="geometry">
            <mxPoint x="120" y="254.5" as="sourcePoint" />
            <mxPoint x="460" y="254.5" as="targetPoint" />
          </mxGeometry>
        </mxCell>
        <mxCell id="TzHnPAHYvHhggCEKfEBy-16" value="" style="endArrow=classic;html=1;rounded=0;" edge="1" parent="1">
          <mxGeometry width="50" height="50" relative="1" as="geometry">
            <mxPoint x="460" y="300" as="sourcePoint" />
            <mxPoint x="820" y="300" as="targetPoint" />
          </mxGeometry>
        </mxCell>
        <mxCell id="TzHnPAHYvHhggCEKfEBy-17" value="" style="endArrow=classic;html=1;rounded=0;" edge="1" parent="1">
          <mxGeometry width="50" height="50" relative="1" as="geometry">
            <mxPoint x="820" y="380" as="sourcePoint" />
            <mxPoint x="460" y="380" as="targetPoint" />
          </mxGeometry>
        </mxCell>
        <mxCell id="TzHnPAHYvHhggCEKfEBy-18" value="&lt;font style=&quot;font-size: 18px;&quot;&gt;User&lt;/font&gt;" style="text;html=1;strokeColor=none;fillColor=none;align=center;verticalAlign=middle;whiteSpace=wrap;rounded=0;" vertex="1" parent="1">
          <mxGeometry x="70" y="135" width="100" height="30" as="geometry" />
        </mxCell>
        <mxCell id="TzHnPAHYvHhggCEKfEBy-19" value="&lt;font style=&quot;font-size: 18px;&quot;&gt;Input Credentials&lt;/font&gt;" style="text;whiteSpace=wrap;html=1;" vertex="1" parent="1">
          <mxGeometry x="210" y="220" width="170" height="50" as="geometry" />
        </mxCell>
        <mxCell id="TzHnPAHYvHhggCEKfEBy-24" value="&lt;font style=&quot;font-size: 18px;&quot;&gt;Verify &lt;/font&gt;&lt;font style=&quot;font-size: 18px;&quot;&gt;Credentials&lt;/font&gt;" style="text;whiteSpace=wrap;html=1;" vertex="1" parent="1">
          <mxGeometry x="560" y="270" width="170" height="50" as="geometry" />
        </mxCell>
        <mxCell id="TzHnPAHYvHhggCEKfEBy-26" value="&lt;font style=&quot;font-size: 18px;&quot;&gt;Access Grant/Deny based on Verification&lt;/font&gt;" style="text;whiteSpace=wrap;html=1;" vertex="1" parent="1">
          <mxGeometry x="130" y="410" width="330" height="50" as="geometry" />
        </mxCell>
        <mxCell id="TzHnPAHYvHhggCEKfEBy-27" value="" style="endArrow=classic;html=1;rounded=0;" edge="1" parent="1">
          <mxGeometry width="50" height="50" relative="1" as="geometry">
            <mxPoint x="460" y="440" as="sourcePoint" />
            <mxPoint x="120" y="440" as="targetPoint" />
          </mxGeometry>
        </mxCell>
        <mxCell id="TzHnPAHYvHhggCEKfEBy-30" value="&lt;font style=&quot;font-size: 18px;&quot;&gt; Credentials Valid or Credentials Invalid&lt;/font&gt;" style="text;whiteSpace=wrap;html=1;" vertex="1" parent="1">
          <mxGeometry x="487" y="350" width="340" height="50" as="geometry" />
        </mxCell>
        <mxCell id="TzHnPAHYvHhggCEKfEBy-33" value="&lt;b&gt;&lt;font style=&quot;font-size: 18px;&quot;&gt;Login Sequence Diagram&lt;/font&gt;&lt;/b&gt;" style="text;whiteSpace=wrap;html=1;" vertex="1" parent="1">
          <mxGeometry x="60" y="50" width="280" height="50" as="geometry" />
        </mxCell>
      </root>
    </mxGraphModel>
  </diagram>
</mxfile>
